<?xml version="1.0" standalone="no"?>
<!DOCTYPE svg PUBLIC "-//W3C//DTD SVG 20010904//EN"
 "http://www.w3.org/TR/2001/REC-SVG-20010904/DTD/svg10.dtd">
<svg version="1.0" xmlns="http://www.w3.org/2000/svg"
 width="276.000000pt" height="276.000000pt" viewBox="0 0 276.000000 276.000000"
 preserveAspectRatio="xMidYMid meet">
<metadata>
Created by potrace 1.14, written by Peter Selinger 2001-2017
</metadata>
<g transform="translate(0.000000,276.000000) scale(0.100000,-0.100000)"
fill="#000000" stroke="none">
<path d="M1313 2393 c-26 -14 -74 -41 -106 -59 -32 -19 -60 -34 -62 -34 -2 0
-34 -17 -72 -39 -88 -49 -103 -57 -593 -326 -228 -125 -425 -237 -437 -249
-12 -11 -24 -32 -26 -46 -8 -47 18 -76 118 -130 l95 -51 0 -211 0 -210 -40
-45 -40 -46 71 -78 c39 -44 75 -81 79 -84 7 -4 125 121 143 152 6 9 -5 30 -30
62 l-39 48 1 156 c1 86 4 159 7 163 4 3 33 -10 65 -28 l58 -34 3 -454 c2 -443
3 -454 23 -476 31 -34 62 -34 167 -3 53 16 111 31 127 34 17 3 46 10 65 15 19
5 51 11 70 14 19 3 44 7 55 10 18 3 94 13 183 22 51 5 305 5 367 -1 83 -8 137
-15 195 -25 30 -5 66 -11 80 -14 40 -6 231 -56 275 -71 50 -16 87 -10 115 20
22 23 22 25 22 477 l0 454 47 25 c25 13 107 58 181 99 74 41 157 86 184 100
57 29 88 72 79 110 -10 45 -20 53 -203 153 -25 13 -97 52 -160 87 -63 35 -135
74 -160 88 -25 13 -74 41 -110 60 -36 19 -105 58 -155 85 -49 28 -115 64 -145
80 -30 17 -130 72 -223 123 -92 51 -180 95 -196 97 -20 3 -46 -4 -78 -20z
m275 -277 c114 -63 317 -174 452 -249 386 -212 415 -228 423 -236 4 -4 -12
-17 -35 -30 -24 -12 -57 -30 -75 -41 -17 -10 -67 -38 -110 -61 -122 -66 -636
-348 -653 -359 -8 -5 -46 -26 -85 -46 -38 -20 -79 -43 -90 -50 -11 -8 -25 -14
-32 -14 -9 0 -995 535 -1082 588 -11 6 9 22 75 59 74 42 547 303 744 410 56
30 130 71 210 117 25 14 46 25 48 26 2 0 97 -51 210 -114z m-519 -1120 c163
-89 295 -156 310 -156 31 0 18 -7 346 175 72 39 166 91 210 115 44 24 89 49
100 57 11 7 24 13 31 13 7 0 11 -94 11 -326 0 -325 0 -326 -21 -321 -12 3 -57
14 -101 25 -96 24 -242 49 -345 59 -140 13 -497 6 -560 -12 -8 -2 -33 -6 -55
-9 -55 -6 -190 -34 -249 -52 -27 -8 -53 -14 -56 -14 -4 0 -7 148 -7 330 l0
330 51 -29 c28 -16 179 -99 335 -185z"/>
</g>
</svg>
